<svg xmlns="http://www.w3.org/2000/svg" xmlns:xlink="http://www.w3.org/1999/xlink" width="500" zoomAndPan="magnify" viewBox="0 0 375 374.999991" height="500" preserveAspectRatio="xMidYMid meet" version="1.0"><defs><g/><clipPath id="4a0c3d7a49"><path d="M 74.035156 147.457031 L 122.785156 147.457031 L 122.785156 207.457031 L 74.035156 207.457031 Z M 74.035156 147.457031 " clip-rule="nonzero"/></clipPath></defs><rect x="-37.5" width="450" fill="#ffffff" y="-37.499999" height="449.999989" fill-opacity="1"/><rect x="-37.5" width="450" fill="#ffffff" y="-37.499999" height="449.999989" fill-opacity="1"/><g clip-path="url(#4a0c3d7a49)"><path fill="#ffb800" d="M 114.035156 161.296875 L 110.582031 161.296875 L 110.582031 159.875 C 110.582031 153.042969 105.027344 147.472656 98.183594 147.472656 C 91.335938 147.472656 85.78125 153.027344 85.78125 159.875 L 85.78125 161.296875 L 82.328125 161.296875 C 77.875 161.296875 74.261719 164.914062 74.261719 169.363281 L 74.261719 199.457031 C 74.261719 203.90625 77.875 207.523438 82.328125 207.523438 L 114.035156 207.523438 C 118.488281 207.523438 122.101562 203.90625 122.101562 199.457031 L 122.101562 169.378906 C 122.101562 164.929688 118.488281 161.296875 114.035156 161.296875 Z M 90.203125 159.886719 C 90.203125 155.480469 93.789062 151.894531 98.195312 151.894531 C 102.605469 151.894531 106.191406 155.480469 106.191406 159.886719 L 106.191406 161.3125 L 90.203125 161.3125 Z M 98.183594 197.164062 C 91.746094 197.164062 86.515625 191.933594 86.515625 185.496094 L 90.1875 185.496094 C 90.1875 189.90625 93.773438 193.492188 98.183594 193.492188 C 102.589844 193.492188 106.175781 189.90625 106.175781 185.496094 L 109.847656 185.496094 C 109.863281 191.917969 104.632812 197.164062 98.183594 197.164062 Z M 98.183594 197.164062 " fill-opacity="1" fill-rule="nonzero"/></g><g fill="#eb5d3b" fill-opacity="1"><g transform="translate(129.573342, 197.190616)"><g><path d="M 15.421875 -23.6875 L 15.421875 -18.953125 L 7.125 -18.953125 L 7.125 -14.25 L 14.796875 -14.25 L 14.796875 -9.5 L 7.125 -9.5 L 7.125 0 L 1.71875 0 L 1.71875 -23.6875 Z M 15.421875 -23.6875 "/></g></g></g><g fill="#141515" fill-opacity="1"><g transform="translate(145.862404, 197.190616)"><g><path d="M 19.9375 -23.6875 L 19.9375 -8.421875 C 19.9375 -5.503906 19.148438 -3.296875 17.578125 -1.796875 C 16.003906 -0.304688 13.703125 0.4375 10.671875 0.4375 C 7.648438 0.4375 5.351562 -0.304688 3.78125 -1.796875 C 2.21875 -3.296875 1.4375 -5.503906 1.4375 -8.421875 L 1.4375 -23.6875 L 6.828125 -23.6875 L 6.828125 -10 C 6.828125 -8.082031 7.128906 -6.75 7.734375 -6 C 8.335938 -5.25 9.316406 -4.875 10.671875 -4.875 C 12.035156 -4.875 13.019531 -5.25 13.625 -6 C 14.226562 -6.75 14.53125 -8.082031 14.53125 -10 L 14.53125 -23.6875 Z M 19.9375 -23.6875 "/></g></g></g><g fill="#141515" fill-opacity="1"><g transform="translate(167.232092, 197.190616)"><g><path d="M 7.125 -14.703125 L 7.125 0 L 1.71875 0 L 1.71875 -23.6875 L 7.125 -23.6875 L 16.546875 -8.984375 L 16.59375 -8.984375 L 16.59375 -23.6875 L 22 -23.6875 L 22 0 L 16.59375 0 L 7.171875 -14.703125 Z M 7.125 -14.703125 "/></g></g></g><g fill="#141515" fill-opacity="1"><g transform="translate(190.957043, 197.190616)"><g/></g></g><g fill="#eb5d3b" fill-opacity="1"><g transform="translate(198.807713, 197.190616)"><g><path d="M 21.3125 0 L 20.1875 -14.046875 L 20.046875 -14.046875 L 15.1875 -0.140625 L 11.96875 -0.140625 L 7.125 -14.046875 L 6.984375 -14.046875 L 5.859375 0 L 0.453125 0 L 2.578125 -23.6875 L 8.328125 -23.6875 L 13.578125 -10.015625 L 18.84375 -23.6875 L 24.578125 -23.6875 L 26.703125 0 Z M 21.3125 0 "/></g></g></g><g fill="#141515" fill-opacity="1"><g transform="translate(225.983492, 197.190616)"><g><path d="M 13.75 -23.6875 L 23.3125 0 L 17.515625 0 L 15.765625 -4.734375 L 6.75 -4.734375 L 5 0 L -0.796875 0 L 8.765625 -23.6875 Z M 13.921875 -9.484375 L 11.28125 -16.375 L 11.234375 -16.375 L 8.59375 -9.484375 Z M 13.921875 -9.484375 "/></g></g></g><g fill="#141515" fill-opacity="1"><g transform="translate(248.502088, 197.190616)"><g><path d="M 1.71875 -23.6875 L 10.1875 -23.6875 C 12.46875 -23.6875 14.328125 -23.078125 15.765625 -21.859375 C 17.203125 -20.648438 17.921875 -18.914062 17.921875 -16.65625 C 17.921875 -14.914062 17.484375 -13.457031 16.609375 -12.28125 C 15.742188 -11.101562 14.5625 -10.273438 13.0625 -9.796875 L 21.21875 0 L 14.359375 0 L 7.125 -9.359375 L 7.125 0 L 1.71875 0 Z M 7.125 -13.1875 L 7.75 -13.1875 C 8.25 -13.1875 8.671875 -13.191406 9.015625 -13.203125 C 9.359375 -13.222656 9.75 -13.289062 10.1875 -13.40625 C 10.632812 -13.519531 10.988281 -13.679688 11.25 -13.890625 C 11.519531 -14.109375 11.75 -14.414062 11.9375 -14.8125 C 12.132812 -15.21875 12.234375 -15.707031 12.234375 -16.28125 C 12.234375 -16.851562 12.132812 -17.335938 11.9375 -17.734375 C 11.75 -18.140625 11.519531 -18.445312 11.25 -18.65625 C 10.988281 -18.875 10.632812 -19.039062 10.1875 -19.15625 C 9.75 -19.269531 9.359375 -19.335938 9.015625 -19.359375 C 8.671875 -19.378906 8.25 -19.390625 7.75 -19.390625 L 7.125 -19.390625 Z M 7.125 -13.1875 "/></g></g></g><g fill="#141515" fill-opacity="1"><g transform="translate(269.067543, 197.190616)"><g><path d="M 23.296875 0 L 15.859375 0 L 7.125 -10.046875 L 7.125 0 L 1.71875 0 L 1.71875 -23.6875 L 7.125 -23.6875 L 7.125 -14.015625 L 15.25 -23.6875 L 21.796875 -23.6875 L 12.265625 -12.46875 Z M 23.296875 0 "/></g></g></g><g fill="#141515" fill-opacity="1"><g transform="translate(291.672312, 197.190616)"><g><path d="M 15.28125 -23.6875 L 15.28125 -18.953125 L 7.125 -18.953125 L 7.125 -14.25 L 14.9375 -14.25 L 14.9375 -9.5 L 7.125 -9.5 L 7.125 -4.734375 L 15.28125 -4.734375 L 15.28125 0 L 1.71875 0 L 1.71875 -23.6875 Z M 15.28125 -23.6875 "/></g></g></g><g fill="#141515" fill-opacity="1"><g transform="translate(308.331475, 197.190616)"><g><path d="M 0.234375 -18.953125 L 0.234375 -23.6875 L 16.890625 -23.6875 L 16.890625 -18.953125 L 11.25 -18.953125 L 11.25 0 L 5.859375 0 L 5.859375 -18.953125 Z M 0.234375 -18.953125 "/></g></g></g></svg>